# This file uses centimeters as units for non-parametric coordinates.

mtllib Panel3LP.mtl
g default
v 0.047518 0.018918 0.383313
v 0.041327 0.498384 0.381549
v 0.036331 0.712648 0.192023
v 0.040409 1.044788 0.169755
v 0.040474 1.454790 0.169190
v 0.048313 1.834483 0.197685
v 0.041618 2.227549 0.394589
v 0.040180 2.873795 0.391994
v 0.049354 2.902413 0.355484
v 0.043446 -0.004265 0.354703
v 1.053304 -0.004939 0.354639
v 1.049084 0.024986 0.382777
v 1.051669 0.495208 0.383532
v 1.092747 -0.006280 0.365000
v 1.089227 0.539077 0.361774
v 1.089553 0.716645 0.213880
v 1.089343 1.075067 0.193523
v 1.094980 1.465490 0.188047
v 1.088547 1.825215 0.195094
v 1.097009 2.213579 0.358942
v 1.097843 2.902225 0.341508
v 1.047777 0.722811 0.211466
v 1.038626 1.072327 0.194585
v 1.043322 1.466720 0.190450
v 1.064121 1.823345 0.191633
v 1.053166 2.903871 0.354528
v 1.097397 -0.006067 0.534195
v 1.097733 0.355017 0.532743
v 1.098002 0.540606 0.430173
v 1.099552 0.718495 0.429135
v 1.098160 0.888569 0.314681
v 1.096202 1.811826 0.354559
v 1.098151 2.542984 0.541940
v 1.096340 2.897006 0.544128
v 1.229924 -0.006458 0.534902
v 1.230786 0.353099 0.533403
v 1.229851 0.542516 0.430586
v 1.229326 0.725095 0.427220
v 1.229374 0.888926 0.315279
v 1.229501 1.082520 0.184328
v 1.228689 1.465418 0.190120
v 1.228682 1.818928 0.356277
v 1.230319 2.212611 0.357932
v 1.227146 2.549873 0.543721
v 1.229426 2.899384 0.543971
v 1.232924 2.901188 -0.092189
v 1.234729 2.557403 -0.093664
v 1.235526 2.208752 -0.094003
v 1.234958 1.806291 -0.094733
v 1.232424 1.450817 -0.096829
v 1.234411 1.056384 -0.094157
v 1.234558 0.861869 -0.095651
v 1.235306 0.709747 -0.094824
v 1.235627 0.521669 -0.093847
v 1.235791 0.346145 -0.093028
v 1.235807 -0.001253 -0.096034
v 0.000000 2.194052 0.362347
v 0.000000 2.904605 0.362347
v 0.000000 1.830273 0.194929
v 0.000000 1.455747 0.352932
v 0.000000 1.093996 0.356219
v 0.000000 0.698874 0.205751
v 0.000000 0.542033 0.353793
v 0.000000 -0.004252 0.354808
v -0.047518 0.019011 0.382926
v -0.041314 0.499409 0.381716
v -0.036336 0.712840 0.192207
v -0.040790 1.044787 0.170131
v -0.040849 1.454789 0.169628
v -0.048313 1.834769 0.197094
v -0.041678 2.227552 0.394378
v -0.040194 2.874081 0.392973
v -0.049346 2.903662 0.355953
v -0.043446 -0.004272 0.354779
v -1.053304 -0.004942 0.354662
v -1.049120 0.024606 0.384377
v -1.051671 0.495202 0.382785
v -1.091871 -0.006361 0.366103
v -1.086745 0.539688 0.364301
v -1.089665 0.716685 0.214436
v -1.089504 1.075080 0.193911
v -1.094883 1.465492 0.187812
v -1.087657 1.824390 0.197066
v -1.097057 2.213741 0.358543
v -1.096934 2.904597 0.341570
v -1.047817 0.722806 0.211368
v -1.038707 1.072322 0.194390
v -1.043396 1.466718 0.190271
v -1.064121 1.823363 0.191596
v -1.053155 2.904619 0.354758
v -1.097367 -0.006164 0.535036
v -1.097438 0.355243 0.533510
v -1.097714 0.540696 0.430942
v -1.098839 0.718936 0.430576
v -1.097774 0.889258 0.315668
v -1.096151 1.811626 0.354974
v -1.097898 2.542950 0.542529
v -1.096346 2.897017 0.544327
v -1.229928 -0.006467 0.535008
v -1.230931 0.353341 0.533998
v -1.230178 0.542518 0.431485
v -1.229167 0.724865 0.426794
v -1.229507 0.889359 0.315814
v -1.229501 1.082513 0.184309
v -1.228767 1.465280 0.190442
v -1.228658 1.818930 0.355950
v -1.230334 2.212417 0.358421
v -1.227188 2.549861 0.543876
v -1.229427 2.899387 0.544129
v -1.232918 2.901136 -0.092185
v -1.235129 2.557420 -0.093707
v -1.235807 2.208752 -0.094008
v -1.235126 1.806291 -0.094746
v -1.232731 1.450824 -0.097956
v -1.235021 1.056407 -0.094222
v -1.234840 0.861859 -0.095673
v -1.235789 0.709761 -0.094840
v -1.235992 0.521669 -0.093847
v -1.235583 0.346156 -0.093026
v -1.235992 -0.001253 -0.096034
v 1.049406 2.870763 0.393986
v 1.049774 2.221842 0.393629
v -1.049722 2.223229 0.394134
v -1.044492 2.870835 0.393624
vt 0.805291 0.246171
vt 0.806074 0.295701
vt 0.798435 0.297421
vt 0.779907 0.233935
vt 0.779097 0.102775
vt 0.778376 0.094427
vt 0.806394 0.094053
vt 0.801556 0.394912
vt 0.841420 0.395677
vt 0.843186 0.504578
vt 0.803027 0.504921
vt 0.843256 0.296217
vt 0.844182 0.343656
vt 0.844133 0.246598
vt 0.848815 0.194831
vt 0.843943 0.094113
vt 0.885457 0.094004
vt 0.885727 0.194296
vt 0.993032 0.095456
vt 0.993027 0.192356
vt 0.885434 0.247131
vt 0.992976 0.241316
vt 0.885270 0.298058
vt 0.992875 0.293777
vt 0.885285 0.343756
vt 0.992641 0.336209
vt 0.885325 0.397755
vt 0.992595 0.390465
vt 0.885070 0.504558
vt 0.991972 0.500486
vt 0.863318 0.601183
vt 0.885068 0.603164
vt 0.992766 0.599639
vt 0.885581 0.712975
vt 0.992944 0.711899
vt 0.884587 0.807048
vt 0.992694 0.809149
vt 0.885301 0.904538
vt 0.843612 0.903875
vt 0.844179 0.805127
vt 0.992129 0.905042
vt 0.802874 0.604396
vt 0.826870 0.604918
vt 0.485296 0.101108
vt 0.487240 0.235107
vt 0.247530 0.233933
vt 0.248329 0.102669
vt 0.247019 0.094427
vt 0.486572 0.094614
vt 0.488799 0.294640
vt 0.230968 0.297419
vt 0.487404 0.387231
vt 0.233034 0.394911
vt 0.487385 0.501593
vt 0.231565 0.504921
vt 0.485047 0.607582
vt 0.228731 0.604401
vt 0.225418 0.094031
vt 0.214966 0.245707
vt 0.217860 0.295712
vt 0.156320 0.246623
vt 0.156407 0.194894
vt 0.156429 0.094086
vt 0.155968 0.296340
vt 0.158892 0.395680
vt 0.156301 0.343848
vt 0.157207 0.504579
vt 0.115268 0.504520
vt 0.115038 0.397754
vt 0.115036 0.343877
vt 0.202139 0.604687
vt 0.156810 0.601127
vt 0.115302 0.603164
vt 0.114590 0.194364
vt 0.114904 0.094001
vt 0.114826 0.247131
vt 0.115142 0.297994
vt 0.156262 0.805117
vt 0.156749 0.903878
vt 0.115061 0.904539
vt 0.115762 0.807045
vt 0.009750 0.192359
vt 0.009622 0.095456
vt 0.009622 0.241316
vt 0.009685 0.293781
vt 0.009983 0.336206
vt 0.009926 0.390472
vt 0.010643 0.500488
vt 0.009893 0.599639
vt 0.114777 0.712921
vt 0.009680 0.711899
vt 0.009892 0.809153
vt 0.010585 0.905027
vt 0.515066 0.101082
vt 0.513791 0.094615
vt 0.513127 0.234821
vt 0.500181 0.094619
vt 0.511562 0.294586
vt 0.500181 0.246996
vt 0.512839 0.387231
vt 0.500181 0.290744
vt 0.512860 0.501594
vt 0.500181 0.400956
vt 0.515315 0.607503
vt 0.500181 0.501861
vt 0.500181 0.606328
vt 0.188393 0.713290
vt 0.825434 0.713245
vt 0.512768 0.897401
vt 0.515641 0.905383
vt 0.500181 0.905995
vt 0.487125 0.717142
vt 0.500181 0.707798
vt 0.513218 0.717142
vt 0.801785 0.715550
vt 0.807990 0.905331
vt 0.801670 0.896555
vt 0.785824 0.905790
vt 0.487590 0.897481
vt 0.484723 0.905732
vt 0.206682 0.896575
vt 0.211542 0.905999
vt 0.188432 0.905993
vt 0.205044 0.715937
vn -0.102263 0.615947 0.781122
vn -0.102263 0.615947 0.781122
vn -0.102263 0.615947 0.781122
vn -0.102263 0.615947 0.781122
vn -0.206680 -0.685541 0.698081
vn -0.206680 -0.685541 0.698081
vn -0.206680 -0.685541 0.698081
vn 0.437337 0.002591 0.899294
vn 0.437337 0.002591 0.899294
vn 0.437337 0.002591 0.899294
vn 0.437337 0.002591 0.899294
vn -0.012657 0.052357 0.998548
vn -0.012657 0.052357 0.998548
vn -0.012657 0.052357 0.998548
vn -0.012657 0.052357 0.998548
vn 0.033650 0.011795 0.999364
vn 0.033650 0.011795 0.999364
vn 0.033650 0.011795 0.999364
vn 0.033650 0.011795 0.999364
vn -0.997930 0.013038 0.062972
vn -0.997930 0.013038 0.062972
vn -0.997930 0.013038 0.062972
vn -0.997930 0.013038 0.062972
vn -0.997307 0.032757 0.065618
vn -0.997307 0.032757 0.065618
vn -0.997307 0.032757 0.065618
vn -0.997307 0.032757 0.065618
vn -0.998579 0.003257 0.053188
vn -0.998579 0.003257 0.053188
vn -0.998579 0.003257 0.053188
vn -0.998579 0.003257 0.053188
vn -0.999622 0.001040 0.027471
vn -0.999622 0.001040 0.027471
vn -0.999622 0.001040 0.027471
vn -0.005111 0.004103 0.999979
vn -0.005111 0.004103 0.999979
vn -0.005111 0.004103 0.999979
vn -0.005111 0.004103 0.999979
vn 0.999962 -0.001215 0.008661
vn 0.999962 -0.001215 0.008661
vn 0.999962 -0.001215 0.008661
vn 0.999962 -0.001215 0.008661
vn -0.003538 0.480355 0.877067
vn -0.003538 0.480355 0.877067
vn -0.003538 0.480355 0.877067
vn -0.003538 0.480355 0.877067
vn 0.999942 0.005633 0.009231
vn 0.999942 0.005633 0.009231
vn 0.999942 0.005633 0.009231
vn 0.999942 0.005633 0.009231
vn 0.005344 0.012201 0.999911
vn 0.005344 0.012201 0.999911
vn 0.005344 0.012201 0.999911
vn 0.005344 0.012201 0.999911
vn 0.999935 0.002413 0.011150
vn 0.999935 0.002413 0.011150
vn 0.999935 0.002413 0.011150
vn 0.999935 0.002413 0.011150
vn -0.010781 0.561128 0.827659
vn -0.010781 0.561128 0.827659
vn -0.010781 0.561128 0.827659
vn -0.010781 0.561128 0.827659
vn 0.999911 0.006382 0.011675
vn 0.999911 0.006382 0.011675
vn 0.999911 0.006382 0.011675
vn 0.999911 0.006382 0.011675
vn 0.010483 0.552884 0.833193
vn 0.010483 0.552884 0.833193
vn 0.010483 0.552884 0.833193
vn 0.010483 0.552884 0.833193
vn 0.999887 0.004811 0.014268
vn 0.999887 0.004811 0.014268
vn 0.999887 0.004811 0.014268
vn 0.999887 0.004811 0.014268
vn 0.026012 -0.000571 0.999662
vn 0.026012 -0.000571 0.999662
vn 0.026012 -0.000571 0.999662
vn 0.026012 -0.000571 0.999662
vn 0.999881 0.003540 0.015032
vn 0.999881 0.003540 0.015032
vn 0.999881 0.003540 0.015032
vn 0.999881 0.003540 0.015032
vn -0.001525 -0.429309 0.903156
vn -0.001525 -0.429309 0.903156
vn -0.001525 -0.429309 0.903156
vn -0.001525 -0.429309 0.903156
vn 0.999881 -0.006843 0.013817
vn 0.999881 -0.006843 0.013817
vn 0.999881 -0.006843 0.013817
vn 0.999881 -0.006843 0.013817
vn 0.999915 -0.002807 0.012767
vn 0.999915 -0.002807 0.012767
vn 0.999915 -0.002807 0.012767
vn 0.999915 -0.002807 0.012767
vn 0.999928 0.002599 0.011749
vn 0.999928 0.002599 0.011749
vn 0.999928 0.002599 0.011749
vn 0.999928 0.002599 0.011749
vn -0.006074 -0.003461 0.999976
vn -0.006074 -0.003461 0.999976
vn -0.006074 -0.003461 0.999976
vn -0.006074 -0.003461 0.999976
vn 0.999962 -0.000707 0.008695
vn 0.999962 -0.000707 0.008695
vn 0.999962 -0.000707 0.008695
vn 0.999962 -0.000707 0.008695
vn -0.013809 -0.011210 0.999842
vn -0.013809 -0.011210 0.999842
vn -0.013809 -0.011210 0.999842
vn -0.013809 -0.011210 0.999842
vn 0.001255 0.002942 0.999995
vn 0.001255 0.002942 0.999995
vn 0.001255 0.002942 0.999995
vn 0.001255 0.002942 0.999995
vn -0.001361 -0.738481 0.674273
vn -0.001361 -0.738481 0.674273
vn -0.001361 -0.738481 0.674273
vn -0.001361 -0.738481 0.674273
vn 0.009547 0.633178 0.773947
vn 0.009547 0.633178 0.773947
vn 0.009547 0.633178 0.773947
vn 0.009547 0.633178 0.773947
vn 0.022632 0.057046 0.998115
vn 0.022632 0.057046 0.998115
vn 0.022632 0.057046 0.998115
vn 0.022632 0.057046 0.998115
vn 0.022556 0.005877 0.999728
vn 0.022556 0.005877 0.999728
vn 0.022556 0.005877 0.999728
vn 0.022556 0.005877 0.999728
vn 0.007488 -0.038768 0.999220
vn 0.007488 -0.038768 0.999220
vn 0.007488 -0.038768 0.999220
vn 0.007488 -0.038768 0.999220
vn 0.225025 -0.706569 0.670913
vn 0.225025 -0.706569 0.670913
vn 0.225025 -0.706569 0.670913
vn -0.426489 0.004100 0.904484
vn -0.426489 0.004100 0.904484
vn -0.426489 0.004100 0.904484
vn -0.426489 0.004100 0.904484
vn 0.151301 0.614487 0.774283
vn 0.151301 0.614487 0.774283
vn 0.151301 0.614487 0.774283
vn 0.151301 0.614487 0.774283
vn 0.997807 0.002819 0.066128
vn 0.997807 0.002819 0.066128
vn 0.997807 0.002819 0.066129
vn 0.997807 0.002819 0.066128
vn 0.999471 0.000334 0.032516
vn 0.999471 0.000334 0.032516
vn 0.999471 0.000334 0.032516
vn 0.996660 0.041172 0.070519
vn 0.996660 0.041172 0.070519
vn 0.996660 0.041172 0.070519
vn 0.996660 0.041172 0.070519
vn 0.025990 0.052546 0.998280
vn 0.025990 0.052546 0.998280
vn 0.025990 0.052546 0.998280
vn 0.025990 0.052546 0.998280
vn 0.998213 0.012646 0.058403
vn 0.998213 0.012646 0.058403
vn 0.998213 0.012646 0.058403
vn 0.998213 0.012646 0.058403
vn -0.028521 0.012648 0.999513
vn -0.028521 0.012648 0.999513
vn -0.028521 0.012648 0.999513
vn -0.028521 0.012648 0.999513
vn -0.025453 -0.000197 0.999676
vn -0.025453 -0.000197 0.999676
vn -0.025453 -0.000197 0.999676
vn -0.025453 -0.000197 0.999676
vn -0.013516 0.555782 0.831218
vn -0.013516 0.555782 0.831218
vn -0.013516 0.555782 0.831218
vn -0.013516 0.555782 0.831218
vn 0.040134 -0.014014 0.999096
vn 0.040134 -0.014014 0.999096
vn 0.040134 -0.014014 0.999096
vn 0.040134 -0.014014 0.999096
vn 0.000795 -0.429343 0.903141
vn 0.000795 -0.429343 0.903141
vn 0.000795 -0.429343 0.903141
vn 0.000795 -0.429343 0.903141
vn 0.001699 0.003519 0.999992
vn 0.001699 0.003519 0.999992
vn 0.001699 0.003519 0.999992
vn 0.001699 0.003519 0.999992
vn 0.003256 0.480177 0.877166
vn 0.003256 0.480177 0.877166
vn 0.003256 0.480177 0.877166
vn 0.003256 0.480177 0.877166
vn -0.011910 0.014018 0.999831
vn -0.011910 0.014018 0.999831
vn -0.011910 0.014018 0.999831
vn -0.011910 0.014018 0.999831
vn 0.001367 0.559278 0.828979
vn 0.001367 0.559278 0.828979
vn 0.001367 0.559278 0.828979
vn 0.001367 0.559278 0.828979
vn 0.004277 -0.002911 0.999987
vn 0.004277 -0.002911 0.999987
vn 0.004277 -0.002911 0.999987
vn 0.004277 -0.002911 0.999987
vn -0.999963 -0.000864 0.008519
vn -0.999963 -0.000864 0.008519
vn -0.999963 -0.000864 0.008519
vn -0.999963 -0.000864 0.008519
vn -0.999953 0.003493 0.008997
vn -0.999953 0.003493 0.008997
vn -0.999953 0.003493 0.008997
vn -0.999953 0.003493 0.008997
vn -0.999925 0.003457 0.011758
vn -0.999925 0.003457 0.011758
vn -0.999925 0.003457 0.011758
vn -0.999925 0.003457 0.011758
vn -0.999902 0.006345 0.012521
vn -0.999902 0.006345 0.012521
vn -0.999902 0.006345 0.012521
vn -0.999902 0.006345 0.012521
vn -0.999871 0.004701 0.015361
vn -0.999871 0.004701 0.015361
vn -0.999871 0.004701 0.015361
vn -0.999871 0.004701 0.015361
vn -0.999857 0.003839 0.016452
vn -0.999857 0.003839 0.016452
vn -0.999857 0.003839 0.016452
vn -0.999857 0.003839 0.016452
vn -0.999875 -0.006639 0.014356
vn -0.999875 -0.006639 0.014356
vn -0.999875 -0.006639 0.014356
vn -0.999875 -0.006639 0.014356
vn -0.999907 -0.003014 0.013275
vn -0.999907 -0.003014 0.013275
vn -0.999907 -0.003014 0.013275
vn -0.999907 -0.003014 0.013275
vn -0.999922 0.002239 0.012313
vn -0.999922 0.002239 0.012313
vn -0.999922 0.002239 0.012313
vn -0.999922 0.002239 0.012313
vn -0.999960 -0.000064 0.008973
vn -0.999960 -0.000064 0.008973
vn -0.999960 -0.000064 0.008973
vn -0.999960 -0.000064 0.008973
vn 0.002162 -0.730130 0.683305
vn 0.002162 -0.730130 0.683305
vn 0.002162 -0.730130 0.683305
vn 0.002162 -0.730130 0.683305
vn -0.000721 0.001060 0.999999
vn -0.000721 0.001060 0.999999
vn -0.000721 0.001060 0.999999
vn -0.000721 0.001060 0.999999
vn -0.000070 -0.770551 0.637378
vn -0.000070 -0.770551 0.637378
vn -0.000070 -0.770551 0.637378
vn 0.001289 -0.777040 0.629450
vn 0.001289 -0.777040 0.629450
vn 0.001289 -0.777040 0.629450
vn -0.010390 0.633146 0.773963
vn -0.010390 0.633146 0.773963
vn -0.010390 0.633146 0.773963
vn -0.010390 0.633146 0.773963
vn 0.533777 -0.001393 0.845624
vn 0.533777 -0.001393 0.845624
vn 0.533777 -0.001393 0.845624
vn 0.533777 -0.001393 0.845624
vn -0.535156 -0.000941 0.844753
vn -0.535156 -0.000941 0.844753
vn -0.535156 -0.000941 0.844753
vn -0.535156 -0.000941 0.844753
vn -0.023060 0.057151 0.998099
vn -0.023060 0.057151 0.998099
vn -0.023060 0.057151 0.998099
vn -0.023060 0.057151 0.998099
vn -0.111535 0.670314 0.733647
vn -0.111535 0.670314 0.733647
vn -0.111535 0.670314 0.733647
vn -0.111535 0.670314 0.733647
vn 0.124762 0.668552 0.733125
vn 0.124762 0.668552 0.733125
vn 0.124762 0.668552 0.733125
vn 0.124762 0.668552 0.733125
vn -0.023144 0.005978 0.999714
vn -0.023144 0.005978 0.999714
vn -0.023144 0.005978 0.999714
vn -0.023144 0.005978 0.999714
vn -0.926164 -0.071075 0.370363
vn -0.926164 -0.071075 0.370363
vn -0.926164 -0.071075 0.370363
vn -0.926164 -0.071075 0.370363
vn 0.927247 -0.070041 0.367841
vn 0.927247 -0.070041 0.367841
vn 0.927247 -0.070041 0.367841
vn 0.927247 -0.070041 0.367841
vn -0.007512 -0.039980 0.999172
vn -0.007512 -0.039980 0.999172
vn -0.007512 -0.039980 0.999172
vn -0.007512 -0.039980 0.999172
vn -0.976465 0.000984 0.215674
vn -0.976465 0.000984 0.215674
vn -0.976465 0.000984 0.215674
vn -0.976465 0.000984 0.215674
vn 0.976982 0.000982 0.213319
vn 0.976982 0.000982 0.213319
vn 0.976982 0.000982 0.213319
vn 0.976982 0.000982 0.213319
vn -0.894625 0.067565 0.441680
vn -0.894625 0.067565 0.441680
vn -0.894625 0.067565 0.441680
vn -0.894625 0.067565 0.441680
vn 0.895338 0.066320 0.440422
vn 0.895338 0.066320 0.440422
vn 0.895338 0.066320 0.440422
vn 0.895338 0.066320 0.440422
vn 0.194733 -0.371742 0.907682
vn 0.194733 -0.371742 0.907682
vn 0.194733 -0.371742 0.907682
vn -0.006233 -0.484692 0.874663
vn -0.006233 -0.484693 0.874662
vn -0.006233 -0.484692 0.874663
vn -0.006233 -0.484692 0.874663
vn -0.100534 -0.384885 0.917473
vn -0.100534 -0.384885 0.917473
vn -0.100534 -0.384885 0.917473
vn 0.008353 -0.484017 0.875019
vn 0.008353 -0.484017 0.875019
vn 0.008353 -0.484018 0.875018
vn 0.008353 -0.484017 0.875019
vn 0.121783 0.766087 0.631094
vn 0.121783 0.766087 0.631094
vn 0.121783 0.766087 0.631094
vn 0.156329 -0.430006 0.889189
vn 0.156329 -0.430006 0.889189
vn 0.156329 -0.430006 0.889189
vn 0.156329 -0.430006 0.889189
vn 0.000416 -0.447883 0.894092
vn 0.000416 -0.447883 0.894092
vn 0.000416 -0.447883 0.894092
vn -0.165737 -0.428925 0.888006
vn -0.165737 -0.428925 0.888006
vn -0.165737 -0.428925 0.888006
vn -0.165737 -0.428925 0.888006
vn -0.603385 0.000886 0.797450
vn -0.603385 0.000886 0.797450
vn -0.603385 0.000886 0.797450
vn -0.603385 0.000886 0.797450
vn -0.998849 -0.008090 0.047270
vn -0.998849 -0.008090 0.047270
vn -0.998849 -0.008090 0.047270
vn -0.998849 -0.008090 0.047270
vn -0.002489 -0.007583 0.999968
vn -0.002489 -0.007583 0.999968
vn -0.002489 -0.007583 0.999968
vn -0.002489 -0.007583 0.999968
vn 0.024156 -0.451303 0.892044
vn 0.024156 -0.451303 0.892044
vn 0.024156 -0.451303 0.892044
vn 0.024156 -0.451303 0.892044
vn -1.000000 -0.000939 -0.000147
vn -1.000000 -0.000939 -0.000147
vn -1.000000 -0.000939 -0.000147
vn -1.000000 -0.000939 -0.000147
vn 0.672228 0.009217 0.740287
vn 0.672228 0.009217 0.740287
vn 0.672228 0.009217 0.740287
vn 0.672228 0.009217 0.740287
vn 0.213653 0.738247 0.639800
vn 0.213653 0.738247 0.639800
vn 0.213653 0.738247 0.639800
vn -0.000504 0.001727 0.999998
vn -0.000504 0.001727 0.999998
vn -0.000504 0.001727 0.999998
vn -0.000504 0.001727 0.999998
vn 0.000282 0.776081 0.630634
vn 0.000282 0.776081 0.630634
vn 0.000282 0.776081 0.630634
vn 0.000282 0.776081 0.630634
vn 0.000203 -0.448840 0.893612
vn 0.000203 -0.448840 0.893612
vn 0.000203 -0.448840 0.893612
vn 0.607753 0.000158 0.794126
vn 0.607753 0.000158 0.794126
vn 0.607753 0.000158 0.794126
vn 0.607753 0.000158 0.794126
vn -0.097021 0.765709 0.635828
vn -0.097021 0.765709 0.635828
vn -0.097021 0.765709 0.635828
vn -0.201522 0.716564 0.667776
vn -0.201522 0.716564 0.667776
vn -0.201522 0.716564 0.667776
vn -0.001048 0.767469 0.641085
vn -0.001048 0.767469 0.641085
vn -0.001048 0.767469 0.641085
vn -0.001048 0.767469 0.641086
vn 0.998554 -0.009185 0.052971
vn 0.998554 -0.009185 0.052971
vn 0.998554 -0.009185 0.052971
vn 0.998554 -0.009185 0.052971
vn 0.999997 -0.001575 0.001964
vn 0.999997 -0.001575 0.001964
vn 0.999997 -0.001575 0.001964
vn 0.999997 -0.001575 0.001964
vn -0.658189 0.012465 0.752750
vn -0.658189 0.012465 0.752750
vn -0.658189 0.012465 0.752750
vn -0.658189 0.012465 0.752750
vn -0.024391 -0.451023 0.892179
vn -0.024391 -0.451023 0.892179
vn -0.024391 -0.451023 0.892179
vn -0.024391 -0.451023 0.892179
vn 0.003042 -0.007582 0.999967
vn 0.003042 -0.007582 0.999967
vn 0.003042 -0.007582 0.999967
vn 0.003042 -0.007582 0.999967
vn 0.000197 0.001479 0.999999
vn 0.000197 0.001479 0.999999
vn 0.000197 0.001479 0.999999
vn 0.000197 0.001479 0.999999
g Panel3LP1:Mesh
usemtl initialShadingGroup
f 15/1/1 16/2/2 22/3/3 13/4/4
f 12/5/5 11/6/6 14/7/7
f 14/7/8 15/1/9 13/4/10 12/5/11
f 23/8/12 22/3/13 16/2/14 17/9/15
f 17/9/16 18/10/17 24/11/18 23/8/19
f 30/12/20 31/13/21 17/9/22 16/2/23
f 29/14/24 30/12/25 16/2/26 15/1/27
f 28/15/28 29/14/29 15/1/30 14/7/31
f 28/15/32 14/7/33 27/16/34
f 28/15/35 27/16/36 35/17/37 36/18/38
f 36/18/39 35/17/40 56/19/41 55/20/42
f 29/14/43 28/15/44 36/18/45 37/21/46
f 37/21/47 36/18/48 55/20/49 54/22/50
f 30/12/51 29/14/52 37/21/53 38/23/54
f 38/23/55 37/21/56 54/22/57 53/24/58
f 31/13/59 30/12/60 38/23/61 39/25/62
f 39/25/63 38/23/64 53/24/65 52/26/66
f 17/9/67 31/13/68 39/25/69 40/27/70
f 40/27/71 39/25/72 52/26/73 51/28/74
f 18/10/75 17/9/76 40/27/77 41/29/78
f 41/29/79 40/27/80 51/28/81 50/30/82
f 32/31/83 18/10/84 41/29/85 42/32/86
f 42/32/87 41/29/88 50/30/89 49/33/90
f 43/34/91 42/32/92 49/33/93 48/35/94
f 44/36/95 43/34/96 48/35/97 47/37/98
f 44/36/99 45/38/100 34/39/101 33/40/102
f 47/37/103 46/41/104 45/38/105 44/36/106
f 25/42/107 24/11/108 18/10/109 19/43/110
f 65/44/111 66/45/112 77/46/113 76/47/114
f 76/47/115 75/48/116 74/49/117 65/44/118
f 66/45/119 67/50/120 86/51/121 77/46/122
f 67/50/123 68/52/124 87/53/125 86/51/126
f 68/52/127 69/54/128 88/55/129 87/53/130
f 69/54/131 70/56/132 89/57/133 88/55/134
f 75/48/135 76/47/136 78/58/137
f 76/47/138 77/46/139 79/59/140 78/58/141
f 86/51/142 80/60/143 79/59/144 77/46/145
f 78/58/146 79/59/147 93/61/148 92/62/149
f 92/62/150 91/63/151 78/58/152
f 79/59/153 80/60/154 94/64/155 93/61/156
f 86/51/157 87/53/158 81/65/159 80/60/160
f 80/60/161 81/65/162 95/66/163 94/64/164
f 87/53/165 88/55/166 82/67/167 81/65/168
f 81/65/169 82/67/170 105/68/171 104/69/172
f 104/69/173 103/70/174 95/66/175 81/65/176
f 88/55/177 89/57/178 83/71/179 82/67/180
f 82/67/181 96/72/182 106/73/183 105/68/184
f 91/63/185 92/62/186 100/74/187 99/75/188
f 92/62/189 93/61/190 101/76/191 100/74/192
f 93/61/193 94/64/194 102/77/195 101/76/196
f 94/64/197 95/66/198 103/70/199 102/77/200
f 97/78/201 98/79/202 109/80/203 108/81/204
f 99/75/205 100/74/206 119/82/207 120/83/208
f 100/74/209 101/76/210 118/84/211 119/82/212
f 101/76/213 102/77/214 117/85/215 118/84/216
f 102/77/217 103/70/218 116/86/219 117/85/220
f 103/70/221 104/69/222 115/87/223 116/86/224
f 104/69/225 105/68/226 114/88/227 115/87/228
f 105/68/229 106/73/230 113/89/231 114/88/232
f 106/73/233 107/90/234 112/91/235 113/89/236
f 107/90/237 108/81/238 111/92/239 112/91/240
f 108/81/241 109/80/242 110/93/243 111/92/244
f 1/94/245 10/95/246 11/6/247 12/5/248
f 2/96/249 1/94/250 12/5/251 13/4/252
f 64/97/253 65/44/254 74/49/255
f 10/95/256 1/94/257 64/97/258
f 3/98/259 2/96/260 13/4/261 22/3/262
f 66/45/263 65/44/264 64/97/265 63/99/266
f 63/99/267 64/97/268 1/94/269 2/96/270
f 4/100/271 3/98/272 22/3/273 23/8/274
f 67/50/275 66/45/276 63/99/277 62/101/278
f 62/101/279 63/99/280 2/96/281 3/98/282
f 5/102/283 4/100/284 23/8/285 24/11/286
f 68/52/287 67/50/288 62/101/289 61/103/290
f 61/103/291 62/101/292 3/98/293 4/100/294
f 6/104/295 5/102/296 24/11/297 25/42/298
f 69/54/299 68/52/300 61/103/301 60/105/302
f 60/105/303 61/103/304 4/100/305 5/102/306
f 70/56/307 69/54/308 60/105/309 59/106/310
f 59/106/311 60/105/312 5/102/313 6/104/314
f 84/107/315 83/71/316 89/57/317
f 84/107/318 97/78/319 108/81/320 107/90/321
f 25/42/322 19/43/323 20/108/324
f 43/34/325 44/36/326 33/40/327 20/108/328
f 8/109/329 9/110/330 58/111/331
f 71/112/332 70/56/333 59/106/334 57/113/335
f 7/114/336 6/104/337 25/42/338
f 57/113/339 59/106/340 6/104/341 7/114/342
f 7/114/343 8/109/344 58/111/345 57/113/346
f 20/108/347 19/43/348 18/10/349 32/31/350
f 20/108/351 32/31/352 42/32/353 43/34/354
f 122/115/355 7/114/356 25/42/357 20/108/358
f 21/116/359 20/108/360 33/40/361 34/39/362
f 121/117/363 122/115/364 20/108/365 21/116/366
f 21/116/367 26/118/368 121/117/369
f 121/117/370 8/109/371 7/114/372 122/115/373
f 26/118/374 9/110/375 8/109/376 121/117/377
f 89/57/378 70/56/379 71/112/380
f 71/112/381 57/113/382 58/111/383 72/119/384
f 72/119/385 58/111/386 73/120/387
f 124/121/388 90/122/389 85/123/390
f 124/121/391 72/119/392 73/120/393 90/122/394
f 96/72/395 82/67/396 83/71/397 84/107/398
f 84/107/399 85/123/400 98/79/401 97/78/402
f 123/124/403 124/121/404 85/123/405 84/107/406
f 84/107/407 89/57/408 71/112/409 123/124/410
f 107/90/411 106/73/412 96/72/413 84/107/414
f 123/124/415 71/112/416 72/119/417 124/121/418
