# This file uses centimeters as units for non-parametric coordinates.

mtllib BarLP.mtl
g default
v 2.257207 -0.643932 1.050240
v 2.257207 0.410297 0.516532
v -2.855578 -0.643932 1.050240
v -2.855578 0.410297 0.516532
v -2.855578 -0.643932 -1.050240
v -2.855578 0.410297 -0.516532
v 2.257207 -0.643932 -1.050240
v 2.257207 0.410297 -0.516532
v -2.855578 -0.519217 1.032648
v -2.855578 -0.519217 -1.032648
v 2.257207 -0.519217 -1.032648
v 2.257207 -0.519217 1.032648
vt 0.500735 0.000000
vt 0.712498 0.000000
vt 0.208810 0.891114
vt 0.289360 0.698334
vt 0.715368 0.000000
vt 0.925175 0.000000
vt 0.834217 0.808420
vt 0.754650 1.000000
vt 0.518158 0.808420
vt 0.597725 1.000000
vt 0.209808 0.000000
vt 0.209808 0.859282
vt 0.212677 0.000000
vt 0.212677 0.610360
vt 0.528537 0.808420
vt 0.741214 0.000000
vt 0.834217 0.832021
vt 0.528537 0.000000
vt 0.518158 0.832021
vt 0.000000 0.000000
vt 0.000000 0.859282
vt 0.502691 0.000000
vt 0.500735 0.610360
vt 0.208810 0.867365
vt 0.712498 0.808420
vt 0.502691 0.808420
vt 0.528414 0.867365
vt 0.447863 0.698334
vt 0.528413 0.891114
vt 0.741214 0.777120
vt 0.925175 0.777120
vt 0.715368 0.777120
vn 0.000000 0.139675 0.990197
vn 0.000000 0.451671 0.892184
vn 0.000000 0.451671 0.892184
vn 0.000000 0.139675 0.990197
vn -1.000000 0.000000 0.000000
vn -1.000000 0.000000 0.000000
vn -1.000000 0.000000 0.000000
vn -1.000000 0.000000 0.000000
vn 0.000000 0.139675 -0.990197
vn 0.000000 0.451671 -0.892184
vn 0.000000 0.451671 -0.892184
vn 0.000000 0.139675 -0.990197
vn 1.000000 -0.000000 0.000000
vn 1.000000 -0.000000 0.000000
vn 1.000000 -0.000000 0.000000
vn 1.000000 -0.000000 0.000000
vn 0.000000 1.000000 0.000000
vn 0.000000 1.000000 0.000000
vn 0.000000 1.000000 0.000000
vn 0.000000 1.000000 0.000000
vn -0.000000 -1.000000 0.000000
vn -0.000000 -1.000000 0.000000
vn -0.000000 -1.000000 0.000000
vn -0.000000 -1.000000 0.000000
vn -1.000000 0.000000 0.000000
vn -1.000000 0.000000 0.000000
vn 0.000000 0.485441 -0.874270
vn 0.000000 0.485441 -0.874270
vn 1.000000 -0.000000 0.000000
vn 1.000000 -0.000000 0.000000
vn 0.000000 0.485441 0.874270
vn 0.000000 0.485441 0.874270
g pCube1
usemtl initialShadingGroup
f 1/22/1 12/18/2 9/15/3 3/26/4
f 3/3/5 9/24/6 10/27/7 5/29/8
f 5/5/9 10/16/10 11/30/11 7/32/12
f 7/7/13 11/17/14 12/19/15 1/9/16
f 2/20/17 8/11/18 6/12/19 4/21/20
f 7/13/21 1/1/22 3/23/23 5/14/24
f 9/24/6 4/4/25 6/28/26 10/27/7
f 11/30/11 10/16/10 6/6/27 8/31/28
f 12/19/15 11/17/14 8/8/29 2/10/30
f 9/15/3 12/18/2 2/2/31 4/25/32
